%FSTAX23Y23*%
%MOIN*%
%SFA1B1*%

%IPPOS*%
%ADD9500C,0.011811*%
%ADD9501C,0.015748*%
%ADD9502C,0.031496*%
%ADD9503C,0.035433*%
%ADD9504C,0.039370*%
%ADD9505C,0.051181*%
%ADD9506C,0.055118*%
%ADD9507C,0.063000*%
%ADD9508C,0.029528*%
%ADD9509C,0.041339*%
%ADD9510C,0.118110*%
%ADD9511C,0.125984*%
%LNmasters26_pcb-roundholes-1*%
%LPD*%
G54D9500*
X03417Y00283D03*
X04814Y00271D03*
X05965Y01726D03*
X05968Y01816D03*
X06169Y01622D03*
X05693Y02016D03*
X0487Y0146D03*
X03716Y01822D03*
X02228Y01527D03*
X01748Y01429D03*
X02011Y01003D03*
X02Y02066D03*
X01358Y02011D03*
X00791Y03062D03*
X00594Y03051D03*
X02452Y03511D03*
X05501Y02086D03*
X05552Y02121D03*
X05822Y02287D03*
X05894Y02343D03*
X05899Y0259D03*
X06051Y02529D03*
X06177Y02602D03*
X06128Y02282D03*
G54D9501*
X01901Y00464D03*
X02102Y0033D03*
X05704Y00472D03*
X06196Y00259D03*
X06066Y00122D03*
X0583Y00614D03*
X05751Y00547D03*
X0607Y01405D03*
X06039Y015D03*
X06078Y01618D03*
X06122Y0172D03*
X06074Y01807D03*
X05822Y0194D03*
X06401Y01606D03*
X0559Y01731D03*
X05461Y01905D03*
X05354Y02019D03*
X02204Y00665D03*
X01996Y00606D03*
X01795D03*
X00724Y02799D03*
X00661Y02783D03*
X00775Y02881D03*
X0033Y02929D03*
X00704Y03405D03*
X02019Y02661D03*
X03023Y02437D03*
X05401Y02562D03*
X06248Y03322D03*
X06429Y03779D03*
G54D9502*
X01535Y01555D03*
Y01633D03*
Y01712D03*
Y01791D03*
Y0187D03*
Y01948D03*
Y02027D03*
X0246D03*
Y01948D03*
Y0187D03*
Y01791D03*
Y01712D03*
Y01633D03*
Y01555D03*
Y02106D03*
Y02185D03*
Y02263D03*
Y02342D03*
Y02421D03*
Y025D03*
Y02578D03*
X01535D03*
Y025D03*
Y02421D03*
Y02342D03*
Y02263D03*
Y02185D03*
Y02106D03*
G54D9503*
X06566Y02595D03*
Y02695D03*
X06233Y03688D03*
X06133D03*
X06033D03*
X03269Y04007D03*
X03169D03*
X03069D03*
X02969D03*
X02869D03*
X02769D03*
G54D9504*
X04147Y01399D03*
X04247D03*
X04347D03*
X04047D03*
X03947D03*
X03847D03*
X03747D03*
X03647D03*
X03547D03*
X05377Y02761D03*
Y03155D03*
G54D9505*
X06485Y01991D03*
Y02141D03*
G54D9506*
X01033Y03818D03*
X00833D03*
X00633D03*
X00433D03*
G54D9507*
X05807Y01157D03*
X06027D03*
X06248D03*
X05586D03*
X00763Y0196D03*
X00492D03*
X00624Y0224D03*
X00893D03*
X00354D03*
X01393Y03744D03*
Y03948D03*
G54D9508*
X06011Y00429D03*
G54D9509*
X05906Y00323D03*
G54D9510*
X04616Y01417D03*
X03277D03*
Y02716D03*
X04616D03*
G54D9511*
X00118Y00118D03*
X06578D03*
Y04015D03*
X00118D03*
M02*