%FSTAX23Y23*%
%MOIN*%
%SFA1B1*%

%IPPOS*%
%AMD57*
4,1,8,0.018700,0.037400,-0.018700,0.037400,-0.037400,0.018700,-0.037400,-0.018700,-0.018700,-0.037400,0.018700,-0.037400,0.037400,-0.018700,0.037400,0.018700,0.018700,0.037400,0.0*
%
%AMD63*
4,1,8,-0.037400,0.018700,-0.037400,-0.018700,-0.018700,-0.037400,0.018700,-0.037400,0.037400,-0.018700,0.037400,0.018700,0.018700,0.037400,-0.018700,0.037400,-0.037400,0.018700,0.0*
%
%ADD15C,0.007000*%
%ADD16C,0.005905*%
%ADD53C,0.049212*%
%ADD54C,0.037401*%
%ADD55C,0.129921*%
%ADD56C,0.074803*%
G04~CAMADD=57~4~0.0~0.0~748.0~748.0~0.0~187.0~0~0.0~0.0~0.0~0.0~0~0.0~0.0~0.0~0.0~0~0.0~0.0~0.0~0.0~748.0~748.0*
%ADD57D57*%
%ADD58C,0.094488*%
%ADD59O,0.068898X0.057087*%
%ADD60O,0.185039X0.106299*%
%ADD61O,0.106299X0.185039*%
%ADD62C,0.106299*%
G04~CAMADD=63~4~0.0~0.0~748.0~748.0~0.0~187.0~0~0.0~0.0~0.0~0.0~0~0.0~0.0~0.0~0.0~0~0.0~0.0~0.0~90.0~748.0~748.0*
%ADD63D63*%
%ADD64C,0.006000*%
%ADD65C,0.141732*%
%ADD66C,0.023622*%
%ADD67C,0.019685*%
%LNmasters26_pcb-1*%
%LPD*%
G54D15*
X13024Y-04372D02*
X13055D01*
X13038Y-04395*
X13046*
X13052Y-04398*
X13055Y-04401*
X13058Y-04409*
Y-04415*
X13055Y-04423*
X13049Y-04429*
X13041Y-04431*
X13032*
X13024Y-04429*
X13021Y-04426*
X13018Y-0442*
G54D16*
X11633Y-04379D02*
Y-04438D01*
Y-04379D02*
X11659D01*
X11667Y-04382*
X1167Y-04385*
X11673Y-04391*
Y-04396*
X1167Y-04402*
X11667Y-04405*
X11659Y-04408*
X11633D02*
X11659D01*
X11667Y-0441*
X1167Y-04413*
X11673Y-04419*
Y-04427*
X1167Y-04433*
X11667Y-04436*
X11659Y-04438*
X11633*
X117Y-04399D02*
X11694Y-04402D01*
X11689Y-04408*
X11686Y-04416*
Y-04422*
X11689Y-0443*
X11694Y-04436*
X117Y-04438*
X11708*
X11714Y-04436*
X1172Y-0443*
X11722Y-04422*
Y-04416*
X1172Y-04408*
X11714Y-04402*
X11708Y-04399*
X117*
X11744Y-04379D02*
Y-04427D01*
X11747Y-04436*
X11752Y-04438*
X11758*
X11735Y-04399D02*
X11755D01*
X11775Y-04379D02*
Y-04427D01*
X11778Y-04436*
X11783Y-04438*
X11789*
X11766Y-04399D02*
X11786D01*
X11811D02*
X11806Y-04402D01*
X118Y-04408*
X11797Y-04416*
Y-04422*
X118Y-0443*
X11806Y-04436*
X11811Y-04438*
X1182*
X11825Y-04436*
X11831Y-0443*
X11834Y-04422*
Y-04416*
X11831Y-04408*
X11825Y-04402*
X1182Y-04399*
X11811*
X11847D02*
Y-04438D01*
Y-0441D02*
X11855Y-04402D01*
X11861Y-04399*
X11869*
X11875Y-04402*
X11878Y-0441*
Y-04438*
Y-0441D02*
X11886Y-04402D01*
X11892Y-04399*
X119*
X11906Y-04402*
X11909Y-0441*
Y-04438*
X12013Y-04388D02*
X12007Y-04382D01*
X11999Y-04379*
X11988*
X11979Y-04382*
X11974Y-04388*
Y-04393*
X11976Y-04399*
X11979Y-04402*
X11985Y-04405*
X12002Y-0441*
X12007Y-04413*
X1201Y-04416*
X12013Y-04422*
Y-0443*
X12007Y-04436*
X11999Y-04438*
X11988*
X11979Y-04436*
X11974Y-0443*
X1204Y-04399D02*
X12035Y-04402D01*
X12029Y-04408*
X12026Y-04416*
Y-04422*
X12029Y-0443*
X12035Y-04436*
X1204Y-04438*
X12049*
X12054Y-04436*
X1206Y-0443*
X12063Y-04422*
Y-04416*
X1206Y-04408*
X12054Y-04402*
X12049Y-04399*
X1204*
X12076Y-04379D02*
Y-04438D01*
X12122Y-04379D02*
Y-04438D01*
Y-04408D02*
X12116Y-04402D01*
X1211Y-04399*
X12102*
X12096Y-04402*
X12091Y-04408*
X12088Y-04416*
Y-04422*
X12091Y-0443*
X12096Y-04436*
X12102Y-04438*
X1211*
X12116Y-04436*
X12122Y-0443*
X12137Y-04416D02*
X12171D01*
Y-0441*
X12168Y-04405*
X12166Y-04402*
X1216Y-04399*
X12152*
X12146Y-04402*
X1214Y-04408*
X12137Y-04416*
Y-04422*
X1214Y-0443*
X12146Y-04436*
X12152Y-04438*
X1216*
X12166Y-04436*
X12171Y-0443*
X12184Y-04399D02*
Y-04438D01*
Y-04416D02*
X12187Y-04408D01*
X12192Y-04402*
X12198Y-04399*
X12206*
G54D53*
X05906Y00323D03*
G54D54*
X06011Y00429D03*
G54D55*
X06248Y01157D03*
X00492Y0196D03*
X01393Y03948D03*
X00624Y0224D03*
X00893D03*
X00354D03*
X06027Y01157D03*
X00763Y0196D03*
X01393Y03744D03*
X05586Y01157D03*
X05807D03*
G54D56*
X04247Y01399D03*
X03847D03*
X03947D03*
X04047D03*
X04347D03*
X03747D03*
X03647D03*
X04147D03*
X06133Y03688D03*
X06233D03*
X03169Y04007D03*
X03069D03*
X02869D03*
X02969D03*
X05377Y03155D03*
Y02761D03*
X06566Y02695D03*
X02769Y04007D03*
G54D57*
X03547Y01399D03*
X06033Y03688D03*
X03269Y04007D03*
G54D58*
X06485Y01991D03*
Y02141D03*
G54D59*
X01535Y02027D03*
Y025D03*
Y01555D03*
Y01633D03*
Y01712D03*
Y01791D03*
Y0187D03*
Y01948D03*
Y02106D03*
Y02185D03*
Y02263D03*
Y02342D03*
Y02421D03*
Y02578D03*
X0246Y0187D03*
Y01948D03*
Y02578D03*
Y02421D03*
Y02342D03*
Y02263D03*
Y02185D03*
Y02106D03*
Y02027D03*
Y01791D03*
Y01712D03*
Y01633D03*
Y01555D03*
Y025D03*
G54D60*
X05618Y03795D03*
Y03566D03*
G54D61*
X05429Y03685D03*
G54D62*
X01033Y03818D03*
X00433D03*
X00833D03*
X00633D03*
G54D63*
X06566Y02595D03*
G54D64*
X03277Y01417D03*
X04616D03*
Y02716D03*
X03277D03*
G54D65*
X00118Y00118D03*
X06578Y04015D03*
X00118D03*
X06578Y00118D03*
G54D66*
X02204Y00665D03*
X01996Y00606D03*
X01795D03*
X06196Y00259D03*
X01901Y00464D03*
X02102Y0033D03*
X0583Y00614D03*
X05751Y00547D03*
X05704Y00472D03*
X06066Y00122D03*
X06248Y03322D03*
X06429Y03779D03*
X00704Y03405D03*
X05401Y02562D03*
X02019Y02661D03*
X06078Y01618D03*
X0607Y01405D03*
X06122Y0172D03*
X06401Y01606D03*
X06039Y015D03*
X06074Y01807D03*
X00724Y02799D03*
X05461Y01905D03*
X0559Y01731D03*
X05354Y02019D03*
X03023Y02437D03*
X00661Y02783D03*
X0033Y02929D03*
X00775Y02881D03*
X05822Y0194D03*
G54D67*
X04814Y00271D03*
X03417Y00283D03*
X03716Y01822D03*
X0487Y0146D03*
X02Y02066D03*
X05899Y0259D03*
X06128Y02282D03*
X05965Y01726D03*
X06169Y01622D03*
X00594Y03051D03*
X00791Y03062D03*
X02452Y03511D03*
X01358Y02011D03*
X02011Y01003D03*
X02228Y01527D03*
X01748Y01429D03*
X05822Y02287D03*
X06177Y02602D03*
X05501Y02086D03*
X05552Y02121D03*
X05968Y01816D03*
X05693Y02016D03*
X06051Y02529D03*
X05894Y02343D03*
M02*