%FSTAX23Y23*%
%MOIN*%
%SFA1B1*%

%IPPOS*%
%ADD15C,0.007000*%
%ADD16C,0.005905*%
%LNmasters26_pcb-1*%
%LPD*%
G54D15*
X13024Y-04372D02*
X13055D01*
X13038Y-04395*
X13046*
X13052Y-04398*
X13055Y-04401*
X13058Y-04409*
Y-04415*
X13055Y-04423*
X13049Y-04429*
X13041Y-04431*
X13032*
X13024Y-04429*
X13021Y-04426*
X13018Y-0442*
G54D16*
X11633Y-04379D02*
Y-04438D01*
Y-04379D02*
X11659D01*
X11667Y-04382*
X1167Y-04385*
X11673Y-04391*
Y-04396*
X1167Y-04402*
X11667Y-04405*
X11659Y-04408*
X11633D02*
X11659D01*
X11667Y-0441*
X1167Y-04413*
X11673Y-04419*
Y-04427*
X1167Y-04433*
X11667Y-04436*
X11659Y-04438*
X11633*
X117Y-04399D02*
X11694Y-04402D01*
X11689Y-04408*
X11686Y-04416*
Y-04422*
X11689Y-0443*
X11694Y-04436*
X117Y-04438*
X11708*
X11714Y-04436*
X1172Y-0443*
X11722Y-04422*
Y-04416*
X1172Y-04408*
X11714Y-04402*
X11708Y-04399*
X117*
X11744Y-04379D02*
Y-04427D01*
X11747Y-04436*
X11752Y-04438*
X11758*
X11735Y-04399D02*
X11755D01*
X11775Y-04379D02*
Y-04427D01*
X11778Y-04436*
X11783Y-04438*
X11789*
X11766Y-04399D02*
X11786D01*
X11811D02*
X11806Y-04402D01*
X118Y-04408*
X11797Y-04416*
Y-04422*
X118Y-0443*
X11806Y-04436*
X11811Y-04438*
X1182*
X11825Y-04436*
X11831Y-0443*
X11834Y-04422*
Y-04416*
X11831Y-04408*
X11825Y-04402*
X1182Y-04399*
X11811*
X11847D02*
Y-04438D01*
Y-0441D02*
X11855Y-04402D01*
X11861Y-04399*
X11869*
X11875Y-04402*
X11878Y-0441*
Y-04438*
Y-0441D02*
X11886Y-04402D01*
X11892Y-04399*
X119*
X11906Y-04402*
X11909Y-0441*
Y-04438*
X11974Y-0441D02*
X11999D01*
X12007Y-04408*
X1201Y-04405*
X12013Y-04399*
Y-04391*
X1201Y-04385*
X12007Y-04382*
X11999Y-04379*
X11974*
Y-04438*
X1206Y-04399D02*
Y-04438D01*
Y-04408D02*
X12054Y-04402D01*
X12049Y-04399*
X1204*
X12035Y-04402*
X12029Y-04408*
X12026Y-04416*
Y-04422*
X12029Y-0443*
X12035Y-04436*
X1204Y-04438*
X12049*
X12054Y-04436*
X1206Y-0443*
X12107Y-04408D02*
X12104Y-04402D01*
X12095Y-04399*
X12087*
X12078Y-04402*
X12076Y-04408*
X12078Y-04413*
X12084Y-04416*
X12098Y-04419*
X12104Y-04422*
X12107Y-04427*
Y-0443*
X12104Y-04436*
X12095Y-04438*
X12087*
X12078Y-04436*
X12076Y-0443*
X12127Y-04379D02*
Y-04427D01*
X1213Y-04436*
X12136Y-04438*
X12141*
X12119Y-04399D02*
X12139D01*
X1215Y-04416D02*
X12184D01*
Y-0441*
X12181Y-04405*
X12178Y-04402*
X12172Y-04399*
X12164*
X12158Y-04402*
X12153Y-04408*
X1215Y-04416*
Y-04422*
X12153Y-0443*
X12158Y-04436*
X12164Y-04438*
X12172*
X12178Y-04436*
X12184Y-0443*
M02*