%FSTAX23Y23*%
%MOIN*%
%SFA1B1*%

%IPPOS*%
%AMD19*
4,1,4,0.052800,-0.002800,-0.002800,0.052800,-0.052800,0.002800,0.002800,-0.052800,0.052800,-0.002800,0.0*
%
%AMD20*
4,1,4,0.032600,-0.004900,-0.004900,0.032600,-0.032600,0.004900,0.004900,-0.032600,0.032600,-0.004900,0.0*
%
%AMD22*
4,1,8,0.018700,0.017700,-0.018700,0.017700,-0.027600,0.008900,-0.027600,-0.008900,-0.018700,-0.017700,0.018700,-0.017700,0.027600,-0.008900,0.027600,0.008900,0.018700,0.017700,0.0*
1,1,0.017717,0.018700,0.008900*
1,1,0.017717,-0.018700,0.008900*
1,1,0.017717,-0.018700,-0.008900*
1,1,0.017717,0.018700,-0.008900*
%
%AMD24*
4,1,8,0.009800,0.015700,-0.009800,0.015700,-0.017700,0.007900,-0.017700,-0.007900,-0.009800,-0.015700,0.009800,-0.015700,0.017700,-0.007900,0.017700,0.007900,0.009800,0.015700,0.0*
1,1,0.015748,0.009800,0.007900*
1,1,0.015748,-0.009800,0.007900*
1,1,0.015748,-0.009800,-0.007900*
1,1,0.015748,0.009800,-0.007900*
%
%AMD25*
4,1,8,-0.015700,0.009800,-0.015700,-0.009800,-0.007900,-0.017700,0.007900,-0.017700,0.015700,-0.009800,0.015700,0.009800,0.007900,0.017700,-0.007900,0.017700,-0.015700,0.009800,0.0*
1,1,0.015748,-0.007900,0.009800*
1,1,0.015748,-0.007900,-0.009800*
1,1,0.015748,0.007900,-0.009800*
1,1,0.015748,0.007900,0.009800*
%
%AMD29*
4,1,8,0.017700,-0.018700,0.017700,0.018700,0.008900,0.027600,-0.008900,0.027600,-0.017700,0.018700,-0.017700,-0.018700,-0.008900,-0.027600,0.008900,-0.027600,0.017700,-0.018700,0.0*
1,1,0.017717,0.008900,-0.018700*
1,1,0.017717,0.008900,0.018700*
1,1,0.017717,-0.008900,0.018700*
1,1,0.017717,-0.008900,-0.018700*
%
%AMD34*
4,1,8,-0.024600,-0.019700,0.024600,-0.019700,0.034400,-0.009800,0.034400,0.009800,0.024600,0.019700,-0.024600,0.019700,-0.034400,0.009800,-0.034400,-0.009800,-0.024600,-0.019700,0.0*
1,1,0.019685,-0.024600,-0.009800*
1,1,0.019685,0.024600,-0.009800*
1,1,0.019685,0.024600,0.009800*
1,1,0.019685,-0.024600,0.009800*
%
%ADD15C,0.007000*%
%ADD16C,0.005905*%
G04~CAMADD=19~9~0.0~0.0~787.4~708.7~0.0~0.0~0~0.0~0.0~0.0~0.0~0~0.0~0.0~0.0~0.0~0~0.0~0.0~0.0~315.0~1056.0~1055.0*
%ADD19D19*%
G04~CAMADD=20~9~0.0~0.0~531.5~393.7~0.0~0.0~0~0.0~0.0~0.0~0.0~0~0.0~0.0~0.0~0.0~0~0.0~0.0~0.0~315.0~652.0~651.0*
%ADD20D20*%
%ADD21R,0.064960X0.009843*%
G04~CAMADD=22~8~0.0~0.0~551.2~354.3~88.6~0.0~15~0.0~0.0~0.0~0.0~0~0.0~0.0~0.0~0.0~0~0.0~0.0~0.0~0.0~551.2~354.3*
%ADD22D22*%
%ADD23R,0.055118X0.098425*%
G04~CAMADD=24~8~0.0~0.0~354.3~315.0~78.7~0.0~15~0.0~0.0~0.0~0.0~0~0.0~0.0~0.0~0.0~0~0.0~0.0~0.0~0.0~354.3~315.0*
%ADD24D24*%
G04~CAMADD=25~8~0.0~0.0~354.3~315.0~78.7~0.0~15~0.0~0.0~0.0~0.0~0~0.0~0.0~0.0~0.0~0~0.0~0.0~0.0~90.0~314.0~354.0*
%ADD25D25*%
%ADD26R,0.090551X0.098425*%
%ADD27O,0.082677X0.012992*%
%ADD28O,0.015748X0.057087*%
G04~CAMADD=29~8~0.0~0.0~551.2~354.3~88.6~0.0~15~0.0~0.0~0.0~0.0~0~0.0~0.0~0.0~0.0~0~0.0~0.0~0.0~270.0~356.0~552.0*
%ADD29D29*%
%ADD30R,0.039370X0.023622*%
%ADD31R,0.052087X0.007992*%
%ADD32R,0.051181X0.021654*%
%ADD33R,0.102362X0.039370*%
G04~CAMADD=34~8~0.0~0.0~689.0~393.7~98.4~0.0~15~0.0~0.0~0.0~0.0~0~0.0~0.0~0.0~0.0~0~0.0~0.0~0.0~180.0~689.0~393.0*
%ADD34D34*%
%ADD35R,0.025591X0.041339*%
%LNmasters26_pcb-1*%
%LPD*%
G54D15*
X13024Y-04372D02*
X13055D01*
X13038Y-04395*
X13046*
X13052Y-04398*
X13055Y-04401*
X13058Y-04409*
Y-04415*
X13055Y-04423*
X13049Y-04429*
X13041Y-04431*
X13032*
X13024Y-04429*
X13021Y-04426*
X13018Y-0442*
G54D16*
X11653Y-04379D02*
Y-04438D01*
X11633Y-04379D02*
X11673D01*
X11694Y-04399D02*
X11688Y-04402D01*
X11683Y-04408*
X1168Y-04416*
Y-04422*
X11683Y-0443*
X11688Y-04436*
X11694Y-04438*
X11702*
X11708Y-04436*
X11713Y-0443*
X11716Y-04422*
Y-04416*
X11713Y-04408*
X11708Y-04402*
X11702Y-04399*
X11694*
X11729D02*
Y-04458D01*
Y-04408D02*
X11735Y-04402D01*
X1174Y-04399*
X11749*
X11755Y-04402*
X1176Y-04408*
X11763Y-04416*
Y-04422*
X1176Y-0443*
X11755Y-04436*
X11749Y-04438*
X1174*
X11735Y-04436*
X11729Y-0443*
X11822Y-0441D02*
X11847D01*
X11856Y-04408*
X11859Y-04405*
X11861Y-04399*
Y-04391*
X11859Y-04385*
X11856Y-04382*
X11847Y-04379*
X11822*
Y-04438*
X11908Y-04399D02*
Y-04438D01*
Y-04408D02*
X11903Y-04402D01*
X11897Y-04399*
X11889*
X11883Y-04402*
X11877Y-04408*
X11875Y-04416*
Y-04422*
X11877Y-0443*
X11883Y-04436*
X11889Y-04438*
X11897*
X11903Y-04436*
X11908Y-0443*
X11955Y-04408D02*
X11952Y-04402D01*
X11944Y-04399*
X11935*
X11927Y-04402*
X11924Y-04408*
X11927Y-04413*
X11933Y-04416*
X11947Y-04419*
X11952Y-04422*
X11955Y-04427*
Y-0443*
X11952Y-04436*
X11944Y-04438*
X11935*
X11927Y-04436*
X11924Y-0443*
X11976Y-04379D02*
Y-04427D01*
X11979Y-04436*
X11984Y-04438*
X1199*
X11967Y-04399D02*
X11987D01*
X11998Y-04416D02*
X12032D01*
Y-0441*
X12029Y-04405*
X12026Y-04402*
X12021Y-04399*
X12012*
X12007Y-04402*
X12001Y-04408*
X11998Y-04416*
Y-04422*
X12001Y-0443*
X12007Y-04436*
X12012Y-04438*
X12021*
X12026Y-04436*
X12032Y-0443*
G54D19*
X05846Y00263D03*
X06071Y00488D03*
G54D20*
X06018Y00237D03*
X06058Y00276D03*
X06098Y00316D03*
X05819Y00436D03*
X05859Y00475D03*
X05899Y00515D03*
G54D21*
X05828Y01875D03*
X05668D03*
X05828Y01856D03*
Y01836D03*
Y01816D03*
X05668Y01797D03*
Y01816D03*
Y01836D03*
Y01856D03*
X05828Y01797D03*
G54D22*
X02202Y00781D03*
Y00856D03*
X02692Y01946D03*
X0096Y02383D03*
X02692Y01872D03*
X02101Y00856D03*
X0657Y03147D03*
Y03072D03*
X01795Y00856D03*
X0096Y02458D03*
X01897Y00856D03*
X02Y00781D03*
X01795Y00781D03*
X02101Y00781D03*
X01897Y00781D03*
X02Y00856D03*
X00856Y03105D03*
Y0318D03*
Y03023D03*
Y02948D03*
X00463Y03105D03*
Y0318D03*
Y02948D03*
Y03023D03*
X00344Y03105D03*
Y0318D03*
X00226Y03105D03*
Y0318D03*
X00974Y03027D03*
Y03101D03*
G54D23*
X01958Y03253D03*
X02135Y03253D03*
Y02895D03*
X01958D03*
G54D24*
X06452Y03133D03*
X06017Y0238D03*
X06241Y01622D03*
X05901Y01726D03*
X06241Y01559D03*
X05901Y01663D03*
X06017Y02443D03*
X06079Y02196D03*
Y02133D03*
X06173Y02196D03*
Y02133D03*
X05974D03*
Y02196D03*
X05894Y02133D03*
Y02196D03*
X06452Y0307D03*
G54D25*
X06311Y03192D03*
X05899Y02522D03*
X06079Y01543D03*
X05837Y02522D03*
X06142Y01543D03*
X06334Y02685D03*
X05552Y01543D03*
X05611Y01952D03*
X06248Y03192D03*
Y03074D03*
X05674Y01952D03*
X05615Y01543D03*
X0577D03*
X05707D03*
X06311Y03074D03*
X06271Y02685D03*
X06339Y02529D03*
X06276D03*
X00431Y02828D03*
X00494D03*
X00822Y02562D03*
X00759D03*
G54D26*
X06519Y03458D03*
Y03627D03*
G54D27*
X02135Y01981D03*
Y02032D03*
Y02006D03*
X01864Y02058D03*
X02135Y02134D03*
Y02211D03*
Y02109D03*
Y0193D03*
Y02237D03*
Y0216D03*
Y02058D03*
Y02083D03*
Y01955D03*
Y01904D03*
Y02186D03*
X01864Y0193D03*
Y02006D03*
Y02211D03*
Y02083D03*
Y02186D03*
Y01904D03*
Y02032D03*
Y02237D03*
Y01955D03*
Y02134D03*
Y01981D03*
Y02109D03*
Y0216D03*
G54D28*
X00659Y0318D03*
Y02948D03*
X00685Y0318D03*
X00634D03*
X00583Y02948D03*
X00608D03*
X00634D03*
X00685D03*
X00711D03*
X00736D03*
X00583Y0318D03*
X00608D03*
X00711D03*
X00736D03*
G54D29*
X01033Y03527D03*
X0184Y02708D03*
X00958Y03527D03*
X00832Y02452D03*
X01765Y02708D03*
X00832Y02649D03*
X00757D03*
Y02452D03*
X005Y02725D03*
X00425D03*
G54D30*
X06222Y01738D03*
Y01812D03*
X06329Y01775D03*
G54D31*
X05835Y02449D03*
X05662Y02372D03*
X05835Y02423D03*
X05662D03*
Y02449D03*
Y02397D03*
X05835Y02372D03*
Y02397D03*
G54D32*
X06111Y02373D03*
X05973Y01468D03*
Y01543D03*
X05879Y01505D03*
Y01468D03*
X05973Y01505D03*
X06205Y0241D03*
X06111Y02448D03*
X05879Y01543D03*
X06205Y02448D03*
Y02373D03*
G54D33*
X06487Y01703D03*
Y01822D03*
G54D34*
X06035Y02763D03*
Y02645D03*
G54D35*
X06135Y01962D03*
X06098Y02053D03*
X06173D03*
M02*